<?xml version="1.0" standalone="no"?>
<!DOCTYPE svg PUBLIC "-//W3C//DTD SVG 20010904//EN"
 "http://www.w3.org/TR/2001/REC-SVG-20010904/DTD/svg10.dtd">
<svg version="1.0" xmlns="http://www.w3.org/2000/svg"
 width="626.000000pt" height="417.000000pt" viewBox="0 0 626.000000 417.000000"
 preserveAspectRatio="xMidYMid meet">

<g transform="translate(0.000000,417.000000) scale(0.100000,-0.100000)"
fill="#000000" stroke="none">
<path d="M19 4147 c0 -21 -1 -21 -9 -2 -10 24 -12 -219 -2 -283 l7 -44 48 37
c34 26 74 44 138 61 49 13 107 33 128 44 22 11 59 22 83 26 68 9 134 33 154
55 22 24 73 53 81 45 3 -2 -1 -21 -8 -40 -11 -32 -10 -44 9 -104 12 -38 22
-85 22 -106 0 -21 7 -63 16 -93 15 -51 15 -73 -2 -129 -5 -20 -3 -21 43 -13
26 4 94 8 151 8 66 1 101 5 97 11 -3 6 3 10 14 10 11 0 23 5 26 10 4 6 -16 10
-52 11 l-58 1 58 13 c59 13 85 25 52 25 -30 0 -8 12 30 17 40 4 56 -16 34 -44
-12 -15 -11 -16 9 -11 18 5 26 0 37 -23 9 -16 15 -31 14 -35 0 -3 3 -9 6 -12
4 -4 5 11 1 33 -9 54 -94 226 -150 303 -26 34 -43 62 -38 62 12 0 76 -87 123
-169 24 -41 45 -69 47 -63 2 7 9 9 15 6 7 -4 -2 8 -19 27 -34 36 -66 92 -62
108 5 15 -109 138 -197 211 l-82 70 -382 0 -381 -1 -1 -22z m271 -29 c0 -19
-2 -20 -10 -8 -13 19 -13 30 0 30 6 0 10 -10 10 -22z m657 -224 c-3 -3 -12 -4
-19 -1 -8 3 -5 6 6 6 11 1 17 -2 13 -5z m-62 -34 c-3 -5 -16 -10 -28 -10 -18
0 -19 2 -7 10 20 13 43 13 35 0z m62 4 c-3 -3 -12 -4 -19 -1 -8 3 -5 6 6 6 11
1 17 -2 13 -5z"/>
<path d="M1161 4143 c16 -44 52 -91 79 -105 14 -7 48 -33 76 -58 50 -45 72
-55 183 -82 69 -17 86 -40 110 -151 19 -90 38 -128 81 -156 l23 -16 -7 35 c-4
19 -12 67 -18 105 -7 39 -21 83 -32 99 -27 40 -32 17 -11 -49 9 -30 15 -62 13
-72 -2 -9 -14 15 -27 55 -13 39 -21 79 -17 87 7 19 -25 59 -35 44 -3 -6 -9 -2
-12 10 -4 16 0 21 13 21 11 0 22 -5 25 -10 4 -6 15 0 26 14 11 14 23 25 27 25
19 -3 25 2 12 11 -10 7 -11 10 -2 10 7 0 21 -15 32 -32 11 -18 20 -29 20 -25
0 14 -21 51 -42 73 -13 14 -16 24 -9 29 18 10 12 43 -9 55 -10 6 -18 16 -16
23 1 6 1 9 -1 5 -3 -5 -12 -8 -21 -9 -11 0 -12 -2 -4 -6 6 -2 12 -16 12 -29 0
-22 -2 -23 -21 -14 -26 15 -36 40 -18 51 11 7 11 9 -2 9 -11 0 -18 13 -23 40
-5 30 -11 40 -24 40 -15 0 -18 -6 -14 -32 5 -31 4 -32 -14 -17 -11 9 -27 19
-36 22 -10 4 -18 11 -18 17 0 5 -9 10 -20 10 -13 0 -18 -5 -14 -15 4 -8 1 -15
-5 -15 -6 0 -11 7 -11 15 0 13 -21 15 -130 15 l-130 0 11 -27z m469 -141 c0
-13 -12 -22 -22 -16 -10 6 -1 24 13 24 5 0 9 -4 9 -8z"/>
<path d="M1730 4163 c0 -4 13 -30 29 -58 l29 -50 -19 -36 -18 -37 29 -12 c25
-10 34 -10 55 4 25 17 36 53 13 41 -7 -4 -5 0 5 8 19 16 22 54 6 77 -8 11 -9
5 -4 -23 4 -27 3 -37 -4 -32 -6 3 -11 13 -11 21 0 8 -5 14 -11 14 -5 0 -7 5
-3 12 4 6 3 8 -4 4 -6 -3 -18 4 -27 16 -8 13 -21 23 -28 23 -6 0 -12 6 -12 14
0 8 -6 16 -12 19 -7 2 -13 0 -13 -5z"/>
<path d="M2040 4160 c0 -5 4 -10 9 -10 5 0 11 -14 13 -30 l5 -30 -24 22 -24
23 10 -27 c6 -15 21 -44 34 -65 13 -21 26 -46 30 -55 4 -11 19 -18 44 -20 33
-3 38 -6 35 -26 -3 -21 -1 -22 17 -12 12 6 21 20 20 33 0 12 2 35 5 51 3 18
-2 38 -12 52 -16 23 -40 34 -27 14 3 -5 3 -10 -2 -10 -4 0 -21 18 -36 40 -16
22 -33 38 -38 35 -5 -3 -6 1 -3 9 5 12 -1 16 -25 16 -17 0 -31 -4 -31 -10z"/>
<path d="M4566 4141 c16 -16 31 -28 32 -26 8 7 -34 54 -47 55 -9 0 -3 -11 15
-29z"/>
<path d="M4672 4150 c7 -10 14 -18 15 -16 6 6 -9 36 -18 36 -5 0 -4 -9 3 -20z"/>
<path d="M4703 4163 c9 -2 23 -2 30 0 6 3 -1 5 -18 5 -16 0 -22 -2 -12 -5z"/>
<path d="M4770 4130 c11 -22 23 -40 25 -40 3 0 -4 18 -15 40 -11 22 -23 40
-25 40 -3 0 4 -18 15 -40z"/>
<path d="M5214 4154 c3 -9 9 -27 12 -40 3 -13 10 -24 16 -24 5 0 6 -6 2 -12
-5 -10 -4 -10 6 -1 18 17 -4 93 -26 93 -11 0 -14 -6 -10 -16z"/>
<path d="M5274 4127 c5 -84 36 -84 36 1 0 35 -3 42 -19 42 -17 0 -20 -6 -17
-43z"/>
<path d="M5324 4153 c2 -10 7 -33 11 -50 4 -18 18 -42 33 -53 l26 -21 -130 5
c-307 13 -413 15 -474 7 -36 -5 -56 -9 -45 -11 11 -1 23 -2 28 -1 11 2 9 -17
-3 -24 -6 -4 -8 -11 -4 -16 3 -5 10 -6 16 -3 7 4 8 2 4 -5 -4 -6 -11 -9 -16
-6 -12 8 -27 -18 -25 -43 1 -18 -2 -22 -17 -19 -12 3 -18 0 -18 -11 0 -8 -3
-13 -6 -9 -4 3 -22 -6 -40 -20 -24 -18 -33 -21 -28 -9 5 12 2 15 -10 10 -8 -3
-18 -14 -21 -25 -4 -11 -11 -17 -16 -14 -5 4 -9 -3 -9 -14 0 -10 -3 -27 -7
-37 -4 -12 -3 -15 5 -10 7 4 12 2 12 -3 0 -6 -4 -11 -10 -11 -18 0 -10 -39 10
-50 18 -9 20 -8 20 14 l0 25 88 -6 c65 -4 92 -10 108 -24 11 -11 25 -19 30
-19 15 0 59 50 79 90 l18 35 -27 -24 c-14 -14 -26 -21 -26 -17 0 5 -7 3 -15
-4 -12 -10 -13 -16 -3 -28 9 -11 9 -14 1 -9 -6 4 -15 2 -19 -4 -4 -8 -3 -9 4
-5 7 4 12 2 12 -3 0 -12 -23 -15 -33 -5 -3 4 -2 16 4 28 9 18 8 18 -9 -3 -13
-16 -21 -20 -26 -12 -4 6 -28 11 -53 11 l-47 0 29 30 c15 16 31 27 35 25 4 -3
14 3 21 13 13 15 12 16 -3 3 -25 -19 -22 -2 4 26 18 19 19 25 8 36 -10 10 -12
9 -7 -5 4 -10 -1 -18 -14 -21 -10 -3 -19 -1 -19 4 0 5 5 9 11 9 5 0 7 5 3 11
-3 6 11 28 32 50 21 21 34 39 29 39 -4 0 0 9 10 20 29 32 107 42 236 30 83 -8
117 -15 126 -26 6 -9 16 -13 22 -9 6 3 11 1 11 -5 0 -7 8 -9 20 -5 23 7 25 -1
5 -35 -8 -14 -14 -34 -14 -45 0 -19 1 -19 19 3 22 26 44 20 37 -9 -7 -26 11
-24 34 4 l19 22 -9 -26 c-27 -76 -93 -191 -116 -201 -31 -14 -40 -6 -25 21 6
13 21 21 35 21 14 0 25 4 25 8 0 5 -14 6 -31 4 -29 -4 -31 -3 -24 19 5 16 4
21 -3 14 -5 -5 -12 -19 -14 -30 -2 -11 -9 -21 -16 -21 -6 -1 -17 -2 -23 -3 -7
-1 -9 -12 -5 -31 5 -26 1 -35 -29 -61 -19 -17 -35 -36 -35 -41 0 -6 12 1 26
15 15 15 30 24 35 21 11 -6 30 -75 23 -85 -2 -5 11 -2 30 6 34 14 35 14 31 -8
-4 -22 -3 -22 98 -19 97 2 106 5 180 42 43 22 87 40 97 40 27 0 85 54 132 122
21 33 51 64 66 69 40 15 147 -5 201 -38 49 -30 117 -111 104 -123 -4 -4 -51
-29 -103 -56 -101 -52 -268 -170 -249 -176 6 -2 -13 -26 -42 -53 -49 -45 -68
-75 -50 -75 3 0 36 33 72 73 62 68 160 148 159 130 -1 -4 -26 -28 -56 -53 -81
-66 -234 -255 -234 -289 0 -19 27 0 40 27 7 16 15 22 17 15 3 -7 14 -13 26
-13 20 1 20 2 4 11 -14 8 -15 14 -6 30 8 16 16 19 42 13 45 -9 54 -16 31 -25
-15 -5 -6 -13 49 -39 72 -34 85 -44 37 -29 -16 5 -42 13 -57 17 -43 13 -61 2
-24 -14 18 -8 30 -17 27 -22 -3 -5 39 -19 92 -31 53 -13 120 -32 147 -42 28
-11 54 -19 59 -19 5 0 6 20 4 45 -5 38 0 56 33 121 22 42 39 86 39 98 0 11 17
48 38 81 31 50 37 69 36 113 0 39 3 51 13 48 10 -4 13 15 13 84 0 73 -3 90
-15 90 -8 0 -15 4 -15 10 0 6 -9 6 -23 1 -32 -12 -39 -5 -61 59 -33 96 -125
280 -174 346 l-47 63 -303 1 c-284 0 -303 -1 -298 -17z m780 -373 c15 -40 25
-77 23 -83 -1 -5 -29 23 -61 62 -32 39 -72 83 -88 96 -16 14 -25 25 -19 25 5
0 12 -4 16 -10 3 -5 20 -19 38 -30 l32 -22 -35 32 c-72 65 -132 110 -146 110
-24 0 -16 30 22 81 62 84 61 85 131 -60 33 -70 73 -161 87 -201z m-232 101
c67 -42 65 -51 -5 -27 -39 14 -63 28 -65 39 -5 25 18 21 70 -12z m-499 -31
c-6 -24 5 -26 21 -4 9 12 11 8 11 -23 -1 -41 -11 -66 -25 -58 -5 3 -19 1 -33
-4 -14 -5 -27 -8 -30 -5 -4 5 51 114 58 114 2 0 1 -9 -2 -20z m97 -59 c-11
-23 -25 -41 -30 -41 -15 0 -13 6 16 51 32 51 42 44 14 -10z m-260 -142 c0 -5
-4 -9 -10 -9 -5 0 -10 7 -10 16 0 8 5 12 10 9 6 -3 10 -10 10 -16z m715 -309
l20 -9 -20 0 c-11 0 -29 4 -40 9 l-20 9 20 0 c11 0 29 -4 40 -9z"/>
<path d="M5969 4153 c6 -10 20 -29 31 -43 l21 -25 -16 39 c-8 21 -15 40 -15
42 0 2 -7 4 -15 4 -12 0 -13 -4 -6 -17z"/>
<path d="M6196 4155 c-4 -10 1 -15 14 -15 11 0 20 7 20 15 0 8 -6 15 -14 15
-8 0 -16 -7 -20 -15z"/>
<path d="M1650 4151 c0 -5 8 -15 18 -24 16 -15 18 -15 19 2 1 11 -7 21 -18 24
-10 3 -19 2 -19 -2z"/>
<path d="M6050 4130 c-13 -8 -12 -10 3 -10 9 0 17 5 17 10 0 12 -1 12 -20 0z"/>
<path d="M6110 4130 c8 -5 24 -10 34 -10 26 0 18 6 -19 14 -22 5 -26 4 -15 -4z"/>
<path d="M6247 4055 c-5 -33 -14 -78 -22 -100 -17 -52 -20 -104 -8 -134 9 -23
11 -21 26 27 24 71 21 96 -4 52 -22 -38 -22 -35 7 72 8 32 14 77 12 100 -3 42
-3 41 -11 -17z m-20 -217 c-3 -8 -6 -5 -6 6 -1 11 2 17 5 13 3 -3 4 -12 1 -19z"/>
<path d="M2251 4090 c0 -8 4 -24 9 -35 5 -13 9 -14 9 -5 0 8 -4 24 -9 35 -5
13 -9 14 -9 5z"/>
<path d="M2390 4070 c11 -16 26 -33 32 -36 7 -4 -1 9 -16 29 -34 44 -46 50
-16 7z"/>
<path d="M1910 4056 c0 -19 39 -96 49 -96 3 0 14 7 23 14 16 11 16 15 3 32
-11 14 -14 15 -9 3 3 -10 -1 -19 -10 -22 -12 -5 -15 0 -12 24 2 21 -1 32 -13
37 -9 3 -19 10 -23 16 -5 7 -8 3 -8 -8z"/>
<path d="M4583 4023 c9 -2 23 -2 30 0 6 3 -1 5 -18 5 -16 0 -22 -2 -12 -5z"/>
<path d="M4488 4013 c6 -2 18 -2 25 0 6 3 1 5 -13 5 -14 0 -19 -2 -12 -5z"/>
<path d="M2446 4001 c5 -10 3 -13 -9 -8 -12 5 -14 0 -11 -20 4 -20 1 -24 -11
-20 -8 4 -15 3 -15 -1 0 -4 27 -14 60 -21 l60 -13 45 36 c55 45 59 56 8 21
-50 -33 -72 -32 -106 7 -16 18 -25 27 -21 19z"/>
<path d="M2280 3970 c0 -6 7 -10 15 -10 8 0 15 2 15 4 0 2 -7 6 -15 10 -8 3
-15 1 -15 -4z"/>
<path d="M5125 3929 c-19 -38 -21 -48 -9 -38 16 13 16 12 6 -7 -6 -12 -18 -24
-27 -27 -9 -4 -12 -13 -8 -23 4 -12 2 -15 -8 -12 -8 3 -29 -5 -46 -19 -18 -13
-33 -21 -33 -17 0 4 -9 -1 -20 -11 -11 -10 -20 -13 -20 -7 0 6 5 14 10 17 6 3
10 12 10 18 0 8 -3 7 -9 -2 -7 -11 -9 -11 -14 0 -3 8 -6 -3 -6 -24 -1 -23 3
-36 9 -32 14 8 13 -8 -1 -22 -18 -18 15 -63 45 -63 48 0 54 7 42 50 -10 38 -9
42 26 77 39 42 101 134 93 141 -2 3 -11 -1 -20 -8 -13 -11 -14 -10 -9 6 4 10
13 24 21 31 9 7 10 13 4 17 -5 4 -21 -17 -36 -45z"/>
<path d="M2336 3948 c3 -5 10 -6 15 -3 13 9 11 12 -6 12 -8 0 -12 -4 -9 -9z"/>
<path d="M4445 3949 c-4 -6 -5 -12 -2 -15 2 -3 7 2 10 11 7 17 1 20 -8 4z"/>
<path d="M5010 3945 c-8 -9 -8 -15 -2 -15 12 0 26 19 19 26 -2 2 -10 -2 -17
-11z"/>
<path d="M4394 3908 l-29 -31 33 23 c17 13 32 27 32 32 0 13 -5 10 -36 -24z"/>
<path d="M5170 3874 c0 -19 -5 -45 -11 -57 -10 -21 -10 -21 5 -3 14 18 23 96
11 96 -3 0 -5 -16 -5 -36z"/>
<path d="M5275 3899 c-4 -6 -5 -12 -2 -15 2 -3 7 2 10 11 7 17 1 20 -8 4z"/>
<path d="M4156 3885 c4 -8 11 -15 16 -15 6 0 5 6 -2 15 -7 8 -14 15 -16 15 -2
0 -1 -7 2 -15z"/>
<path d="M4546 3883 c-6 -14 -5 -15 5 -6 7 7 10 15 7 18 -3 3 -9 -2 -12 -12z"/>
<path d="M4419 3853 l-34 -38 38 34 c20 19 37 36 37 38 0 8 -8 0 -41 -34z"/>
<path d="M4945 3860 c-3 -5 -1 -10 4 -10 6 0 11 5 11 10 0 6 -2 10 -4 10 -3 0
-8 -4 -11 -10z"/>
<path d="M4197 3834 c12 -17 28 -36 35 -41 15 -13 148 -22 148 -10 0 4 -9 7
-20 7 -17 0 -19 3 -10 19 15 28 13 34 -10 28 -11 -3 -18 -1 -14 4 10 17 -13 9
-31 -11 -24 -27 -41 -25 -84 7 l-36 28 22 -31z"/>
<path d="M5184 3825 c-20 -30 -10 -47 11 -19 14 18 20 44 10 44 -2 0 -12 -11
-21 -25z"/>
<path d="M1681 3821 c60 -83 99 -145 94 -150 -3 -3 -11 1 -16 9 -9 12 -10 12
-5 -3 3 -10 6 -26 6 -34 0 -12 3 -13 13 -4 11 9 16 2 26 -32 7 -23 28 -75 46
-114 38 -83 31 -95 -16 -25 -37 54 -76 95 -88 90 -4 -2 1 -34 11 -73 10 -38
22 -104 27 -145 4 -41 16 -90 25 -109 23 -44 36 -134 26 -193 -4 -27 -6 -48
-5 -48 1 0 22 33 47 73 51 80 64 117 71 197 3 30 2 44 -2 30 -7 -26 -7 -27
-49 79 -4 10 -1 12 9 6 11 -7 12 -6 3 6 -7 8 -15 34 -19 59 -4 25 -14 58 -22
73 -8 16 -12 31 -9 34 3 3 15 -14 26 -38 11 -24 20 -38 20 -31 0 17 -18 52
-40 77 -10 11 -31 51 -46 89 -15 37 -37 79 -49 92 -13 14 -33 40 -46 59 -13
19 -30 37 -38 40 -12 5 -12 3 0 -14z"/>
<path d="M5000 3799 c0 -5 5 -7 10 -4 6 3 10 8 10 11 0 2 -4 4 -10 4 -5 0 -10
-5 -10 -11z"/>
<path d="M4475 3780 c3 -5 10 -10 16 -10 5 0 9 5 9 10 0 6 -7 10 -16 10 -8 0
-12 -4 -9 -10z"/>
<path d="M1260 3685 c13 -14 26 -25 28 -25 3 0 -5 11 -18 25 -13 14 -26 25
-28 25 -3 0 5 -11 18 -25z"/>
<path d="M1170 3696 c0 -2 8 -10 18 -17 15 -13 16 -12 3 4 -13 16 -21 21 -21
13z"/>
<path d="M1200 3656 c0 -2 8 -10 18 -17 15 -13 16 -12 3 4 -13 16 -21 21 -21
13z"/>
<path d="M5131 3604 c0 -11 3 -14 6 -6 3 7 2 16 -1 19 -3 4 -6 -2 -5 -13z"/>
<path d="M5136 3572 c-3 -6 -1 -14 5 -17 14 -9 20 -2 10 14 -6 8 -11 9 -15 3z"/>
<path d="M1319 3547 c8 -9 15 -31 17 -47 2 -17 9 -40 15 -51 l11 -21 20 22 21
22 -49 47 c-26 25 -42 38 -35 28z"/>
<path d="M884 3521 c-110 -39 -144 -58 -144 -80 0 -11 18 -54 40 -97 22 -43
40 -74 40 -69 0 6 23 24 51 40 28 17 59 35 68 40 9 6 32 23 51 38 l35 28 -32
-15 c-20 -10 -34 -12 -38 -6 -3 6 1 10 9 10 10 0 15 8 14 24 -2 27 -17 26 -93
-9 -27 -12 -66 -25 -85 -29 -33 -7 -34 -6 -16 9 11 8 23 15 26 15 4 0 5 13 2
30 -3 25 0 30 22 36 49 12 171 63 151 63 -11 0 -56 -13 -101 -28z"/>
<path d="M1145 3529 c-9 -14 22 -46 32 -35 5 5 2 11 -5 13 -6 3 -10 9 -7 13 3
5 1 11 -4 14 -5 4 -13 1 -16 -5z"/>
<path d="M5074 3482 c-28 -20 -69 -52 -90 -71 -39 -34 -134 -158 -134 -174 0
-5 -9 -20 -20 -34 -11 -14 -20 -20 -20 -13 0 8 8 23 17 34 15 17 13 17 -8 -2
-18 -16 -25 -30 -22 -47 3 -13 -2 -34 -11 -47 -9 -12 -16 -33 -16 -46 0 -15
-4 -21 -12 -16 -7 4 -8 3 -4 -4 8 -14 -53 -104 -65 -96 -5 3 -9 -28 -9 -69 0
-60 7 -93 34 -168 35 -93 35 -94 35 -48 1 65 28 148 62 192 33 40 68 113 69
138 0 8 22 59 49 112 37 72 45 97 35 101 -8 3 -14 1 -14 -4 0 -6 -5 -10 -11
-10 -6 0 -37 -22 -69 -50 -68 -59 -100 -67 -49 -12 20 20 48 58 62 83 14 25
33 51 41 59 9 7 16 21 16 31 0 20 42 66 135 146 70 61 70 66 -1 15z"/>
<path d="M5161 3499 c-45 -24 -101 -79 -95 -93 3 -7 -9 -45 -26 -85 -17 -40
-29 -76 -25 -79 3 -4 23 2 43 13 31 17 46 38 89 124 28 57 57 107 64 111 11 8
4 31 -9 29 -4 -1 -22 -10 -41 -20z m-18 -80 c-16 -27 -36 -59 -46 -72 l-18
-22 6 25 c4 14 19 43 33 65 15 22 27 43 28 48 1 4 2 10 3 13 0 3 6 2 11 -1 6
-4 0 -26 -17 -56z"/>
<path d="M1030 3470 c-9 -6 -10 -10 -3 -10 6 0 15 5 18 10 8 12 4 12 -15 0z"/>
<path d="M1186 3420 c8 -43 14 -51 14 -19 0 13 -5 31 -10 39 -7 11 -8 5 -4
-20z"/>
<path d="M1352 3395 c0 -16 2 -22 5 -12 2 9 2 23 0 30 -3 6 -5 -1 -5 -18z"/>
<path d="M1290 3364 c0 -6 23 -37 51 -69 28 -33 71 -90 96 -127 24 -38 46 -68
49 -68 9 0 -29 65 -61 105 -17 22 -41 67 -53 100 -12 33 -21 52 -22 43 0 -24
-9 -23 -37 4 -13 12 -23 17 -23 12z"/>
<path d="M4962 3348 c-14 -14 -16 -48 -3 -48 9 0 25 49 18 56 -2 2 -9 -2 -15
-8z"/>
<path d="M1195 3299 c-41 -37 -240 -178 -280 -199 -46 -24 -50 -28 -48 -60 1
-19 24 -80 52 -135 36 -71 51 -112 51 -140 1 -56 33 -190 62 -255 14 -30 28
-76 32 -102 4 -26 12 -51 18 -54 6 -4 8 -3 5 3 -6 10 38 142 54 157 12 13 12
56 0 56 -5 0 -5 16 0 38 13 58 41 233 43 272 2 19 6 43 10 52 6 14 4 16 -13
13 -12 -2 -27 -7 -34 -10 -6 -4 -3 1 8 10 11 9 20 19 21 23 0 4 4 15 9 25 4
10 5 21 1 24 -3 3 1 11 10 18 10 7 14 22 12 40 l-3 29 -75 -65 c-80 -69 -124
-102 -153 -112 -15 -6 -16 -4 -7 13 6 11 20 25 33 31 12 6 65 55 118 109 l97
98 -5 63 c-3 35 -6 65 -7 65 0 1 -5 -2 -11 -7z m-35 -59 c0 -5 -4 -10 -10 -10
-5 0 -10 5 -10 10 0 6 5 10 10 10 6 0 10 -4 10 -10z m-16 -19 c3 -5 -1 -12
-10 -15 -27 -11 -37 -7 -24 9 14 17 26 19 34 6z m1 -31 c-3 -5 -16 -15 -28
-21 -21 -10 -21 -9 2 10 25 23 36 27 26 11z m-5 -75 c-24 -25 -49 -45 -55 -45
-5 0 3 12 18 25 16 14 26 29 22 34 -3 5 0 13 6 17 8 4 9 3 5 -4 -11 -17 9 -15
24 3 7 8 15 15 18 15 4 0 -14 -20 -38 -45z m57 -71 c-2 -2 -12 -2 -21 2 -15 6
-15 7 1 20 15 11 19 10 21 -2 2 -9 2 -18 -1 -20z m-87 -184 c0 -5 -9 -14 -19
-20 -25 -13 -38 5 -14 19 23 13 33 14 33 1z m20 -150 c0 -5 -8 -10 -17 -10
-15 0 -16 2 -3 10 19 12 20 12 20 0z"/>
<path d="M5490 3239 l-35 -30 38 26 c33 24 43 35 34 35 -1 0 -18 -14 -37 -31z"/>
<path d="M5555 3204 c-19 -15 -22 -21 -9 -15 18 9 52 41 43 41 -2 0 -17 -12
-34 -26z"/>
<path d="M1251 3165 c1 -28 4 -39 6 -26 5 24 6 23 44 -19 21 -24 39 -47 39
-51 0 -4 7 -10 16 -13 10 -4 13 -2 8 7 -8 13 -92 126 -106 142 -4 5 -7 -13 -7
-40z"/>
<path d="M846 3177 c3 -10 9 -15 12 -12 3 3 0 11 -7 18 -10 9 -11 8 -5 -6z"/>
<path d="M846 3135 c-3 -9 -2 -24 3 -32 7 -14 10 -13 16 6 8 27 -9 51 -19 26z"/>
<path d="M5352 3083 c-45 -28 -52 -36 -42 -49 7 -8 16 -29 20 -47 7 -28 8 -29
9 -7 1 14 10 36 21 50 11 14 20 30 20 37 0 6 7 19 16 28 29 28 10 24 -44 -12z"/>
<path d="M1250 3058 c0 -9 5 -20 10 -23 13 -8 13 5 0 25 -8 13 -10 13 -10 -2z"/>
<path d="M5553 3041 c-12 -19 -8 -31 9 -31 5 0 6 5 3 10 -3 6 1 10 10 10 9 0
15 5 13 12 -7 20 -22 19 -35 -1z"/>
<path d="M5813 2980 c48 -33 91 -60 96 -60 17 0 23 -19 12 -37 -6 -10 -11 -12
-11 -5 0 16 -20 16 -20 -1 0 -7 14 -21 31 -31 17 -10 28 -20 26 -23 -10 -9
-82 17 -93 34 -6 10 -30 32 -53 48 -33 22 -44 26 -50 16 -6 -9 -11 -9 -15 -3
-3 6 -25 25 -49 42 l-42 32 47 -43 c72 -68 89 -118 22 -67 l-29 22 25 -30 c13
-16 57 -61 96 -99 l72 -71 17 29 c9 15 32 43 51 62 60 61 43 103 -69 171 -27
16 -65 39 -85 51 -77 47 -61 20 21 -37z"/>
<path d="M1380 3028 c0 -9 41 -78 46 -78 2 0 4 6 4 13 -1 12 -50 77 -50 65z"/>
<path d="M1281 3005 c0 -5 12 -46 27 -90 l27 -80 29 28 c16 15 35 40 43 55
l13 27 -21 -25 -22 -25 -21 29 c-34 48 -75 92 -75 81z"/>
<path d="M5320 2934 c0 -30 -62 -125 -99 -152 -36 -27 -109 -102 -98 -102 3 0
30 23 59 51 29 28 88 78 131 111 43 33 76 62 73 65 -2 3 -15 -2 -28 -11 -33
-23 -37 -20 -31 19 3 19 3 35 -1 35 -3 0 -6 -7 -6 -16z"/>
<path d="M5497 2931 c-4 -17 -3 -21 5 -13 5 5 8 16 6 23 -3 8 -7 3 -11 -10z"/>
<path d="M5644 2931 c11 -11 23 -21 28 -21 14 0 -1 19 -25 31 -22 12 -22 12
-3 -10z"/>
<path d="M728 2918 c-29 -44 -76 -163 -81 -205 -3 -24 -4 -43 -2 -43 2 0 20
10 40 21 27 16 47 20 80 17 l44 -5 7 54 c7 62 -5 117 -37 157 -25 32 -33 32
-51 4z m75 -135 c3 -16 1 -35 -3 -43 -7 -12 -11 -9 -20 12 -13 27 -8 58 9 58
5 0 11 -12 14 -27z"/>
<path d="M584 2912 c-17 -9 -56 -39 -87 -67 -54 -49 -56 -53 -96 -180 -25 -83
-42 -157 -45 -205 -3 -41 -2 -64 1 -50 8 37 18 46 86 71 62 23 139 70 90 55
-13 -4 -23 -5 -23 -1 0 3 10 10 23 15 12 5 15 9 7 9 -8 0 -26 -6 -40 -14 -15
-9 -19 -14 -10 -15 8 0 2 -7 -14 -15 -16 -9 -36 -13 -43 -11 -7 3 -13 1 -13
-5 0 -6 -4 -7 -10 -4 -5 3 -10 1 -10 -5 0 -6 -5 -8 -10 -5 -28 17 43 232 92
277 28 25 28 27 8 33 -19 6 -18 8 12 33 18 15 41 35 52 44 12 10 32 27 46 37
31 25 25 26 -16 3z"/>
<path d="M5480 2889 c0 -5 5 -7 10 -4 6 3 10 8 10 11 0 2 -4 4 -10 4 -5 0 -10
-5 -10 -11z"/>
<path d="M1210 2857 c0 -7 11 -42 26 -78 14 -35 31 -85 37 -111 l13 -47 42 40
c33 33 42 48 41 73 -2 27 -2 28 -6 6 -3 -13 -14 -35 -24 -48 l-19 -25 -23 54
c-13 30 -32 75 -43 101 -18 44 -44 65 -44 35z"/>
<path d="M574 2825 c-10 -8 -14 -14 -9 -14 6 0 19 6 29 14 11 8 15 15 10 15
-6 0 -19 -7 -30 -15z"/>
<path d="M5455 2803 c-4 -16 -12 -47 -19 -69 -12 -40 -11 -44 19 -86 18 -24
52 -79 75 -122 23 -43 49 -80 56 -83 15 -5 57 -73 46 -73 -24 0 -143 136 -174
200 -12 25 -27 40 -39 40 -10 0 -17 -60 -7 -66 4 -3 8 7 8 22 0 22 2 24 15 14
13 -11 13 -14 0 -27 -15 -14 -17 -22 -19 -78 -1 -20 -6 -29 -15 -27 -9 2 -11
-3 -7 -14 3 -9 2 -32 -4 -53 -5 -20 -12 -107 -16 -195 -4 -95 -10 -153 -15
-145 -5 8 -6 32 -2 54 3 23 2 36 -3 32 -11 -11 -15 -129 -4 -142 4 -5 11 -50
15 -98 8 -94 16 -97 43 -18 7 19 30 58 52 86 48 62 91 149 121 242 17 53 34
81 78 128 31 34 70 86 86 117 l30 57 -24 25 c-14 14 -30 26 -36 26 -6 0 -25
17 -41 37 -61 77 -157 189 -185 216 l-28 28 -6 -28z m84 -82 c21 -29 21 -29 1
-24 -22 6 -26 -7 -8 -25 7 -7 10 -12 7 -12 -3 0 -16 11 -30 26 -16 17 -18 23
-7 19 13 -5 15 -2 11 14 -3 11 -10 18 -16 14 -6 -3 -7 -1 -3 5 11 19 23 14 45
-17z m-55 -76 c3 -9 12 -12 22 -8 13 5 15 2 10 -14 -4 -13 1 -29 15 -46 11
-15 17 -27 12 -27 -4 0 -25 25 -46 55 -21 30 -34 55 -29 55 6 0 12 -7 16 -15z
m-19 -245 c3 -5 3 -10 -2 -10 -11 0 -43 57 -36 64 4 3 12 -5 19 -19 7 -14 16
-29 19 -35z m15 -61 c0 -10 4 -18 9 -16 5 1 10 -2 11 -8 1 -5 9 -19 18 -30 9
-11 0 -5 -20 14 -38 35 -57 74 -32 64 8 -3 14 -14 14 -24z m-58 -165 c-7 -12
-11 -13 -17 -4 -4 7 -2 16 6 21 18 11 23 4 11 -17z"/>
<path d="M1189 2773 c-3 -39 -6 -59 -13 -80 -4 -13 -3 -23 2 -23 6 0 16 -32
22 -71 l12 -71 29 28 c30 29 34 35 22 33 -23 -4 -31 4 -36 34 -3 17 -11 46
-17 62 -7 17 -12 47 -11 68 2 20 0 37 -3 37 -3 0 -7 -8 -7 -17z"/>
<path d="M387 2733 c-4 -3 -7 -13 -7 -22 1 -13 3 -13 11 2 11 19 8 33 -4 20z"/>
<path d="M5369 2722 c-9 -9 -39 -36 -68 -60 -28 -24 -51 -48 -51 -55 0 -6 15
2 33 19 17 16 47 40 64 52 l33 22 -5 -32 c-4 -28 -4 -29 3 -8 26 77 23 95 -9
62z"/>
<path d="M203 2690 c-17 -10 -37 -28 -42 -39 -18 -34 -12 -35 17 -3 15 16 41
37 57 46 17 8 23 15 15 16 -8 0 -29 -9 -47 -20z"/>
<path d="M1161 2635 c0 -11 -4 -31 -7 -45 -5 -19 -4 -22 5 -14 7 6 11 26 8 45
-2 19 -5 25 -6 14z"/>
<path d="M5800 2611 c0 -5 6 -14 14 -20 12 -10 17 -8 27 11 11 21 11 22 -4 9
-11 -9 -17 -10 -17 -2 0 6 -4 11 -10 11 -5 0 -10 -4 -10 -9z"/>
<path d="M632 2580 c0 -14 2 -19 5 -12 2 6 2 18 0 25 -3 6 -5 1 -5 -13z"/>
<path d="M5350 2581 c-6 -12 -7 -21 -1 -21 10 0 24 30 17 37 -2 3 -9 -5 -16
-16z"/>
<path d="M216 2546 l-66 -35 0 24 c0 13 -4 26 -9 30 -6 3 -8 -2 -7 -12 2 -10
7 -51 11 -92 4 -40 10 -69 14 -64 3 5 35 28 71 51 82 52 117 80 67 53 -21 -12
-43 -19 -48 -16 -5 4 -9 2 -9 -3 0 -4 -18 -18 -40 -31 -36 -20 -40 -21 -40 -5
0 10 3 14 7 11 3 -4 15 0 25 9 15 14 16 20 5 32 -10 13 -9 15 6 9 11 -4 16 -3
12 3 -3 6 3 10 14 10 12 0 21 4 21 8 0 14 69 42 75 32 3 -6 3 -15 -1 -22 -4
-7 -3 -8 4 -4 7 4 12 15 12 24 0 30 -53 25 -124 -12z m-21 -55 c8 -14 -10 -22
-30 -15 -13 5 -14 8 -3 15 17 11 26 11 33 0z"/>
<path d="M5171 2546 c-18 -19 -29 -36 -24 -38 4 -3 23 13 42 34 41 47 27 51
-18 4z"/>
<path d="M5796 2557 c-11 -8 -17 -20 -14 -27 2 -8 10 -3 21 14 20 30 19 32 -7
13z"/>
<path d="M5255 2495 c-66 -59 -75 -64 -76 -37 0 11 -2 13 -6 4 -3 -8 4 -27 16
-43 11 -15 21 -36 21 -46 0 -10 14 4 33 33 17 28 38 59 45 70 15 24 33 66 30
70 -2 1 -30 -22 -63 -51z"/>
<path d="M640 2510 c-17 -11 -20 -28 -8 -52 7 -14 1 -18 -37 -24 -25 -3 -43
-10 -40 -14 3 -4 -3 -10 -13 -13 -9 -3 -48 -17 -87 -31 -47 -16 -75 -21 -86
-15 -20 10 -24 2 -34 -64 -6 -41 -5 -45 11 -41 11 2 67 15 126 29 59 13 136
27 171 31 l63 6 13 -57 c7 -31 14 -73 16 -93 1 -20 5 -48 8 -62 17 -77 18 -98
2 -102 -9 -2 0 -8 20 -14 35 -11 36 -11 30 10 -3 11 -9 55 -12 96 -2 41 -13
93 -22 115 -10 22 -24 76 -30 120 -12 78 -52 185 -68 185 -4 0 -15 -5 -23 -10z"/>
<path d="M569 2480 c-50 -15 -164 -73 -151 -78 7 -2 23 3 35 10 12 8 38 20 57
27 56 19 90 35 90 43 0 5 -1 8 -2 7 -2 0 -15 -4 -29 -9z"/>
<path d="M1156 2464 c-5 -14 -4 -15 9 -4 17 14 19 20 6 20 -5 0 -12 -7 -15
-16z"/>
<path d="M5318 2355 c-6 -14 -15 -25 -19 -25 -4 0 -18 -17 -30 -37 -13 -21
-34 -53 -48 -71 l-25 -33 -12 23 c-18 31 -17 53 1 88 9 17 13 30 11 30 -10 0
-36 -59 -36 -81 0 -21 49 -109 61 -109 3 0 11 12 18 28 19 41 92 152 101 152
12 0 20 28 14 45 -9 22 -23 18 -36 -10z"/>
<path d="M5343 2287 c-5 -75 -7 -87 -12 -87 -4 0 -17 -20 -31 -45 -14 -25 -28
-45 -32 -45 -5 0 -8 -12 -9 -27 0 -26 -2 -26 -19 12 -10 22 -19 36 -19 30 -1
-5 11 -34 26 -63 l27 -52 28 67 c15 38 34 79 42 93 15 28 21 125 9 133 -4 3
-9 -5 -10 -16z"/>
<path d="M143 2230 c0 -30 2 -43 4 -27 2 15 2 39 0 55 -2 15 -4 2 -4 -28z"/>
<path d="M141 2154 c0 -11 3 -14 6 -6 3 7 2 16 -1 19 -3 4 -6 -2 -5 -13z"/>
<path d="M322 2025 c-2 -66 -5 -138 -8 -160 -58 -479 -71 -542 -149 -724 -19
-46 -49 -135 -67 -199 -32 -115 -32 -120 -34 -352 l-2 -235 -31 -10 -31 -9 0
-169 c0 -130 3 -168 12 -165 7 3 16 21 19 40 8 49 38 96 50 77 5 -8 9 -23 9
-33 0 -11 10 -35 23 -53 l22 -33 147 1 c101 0 149 4 152 12 5 9 8 9 12 0 4
-10 46 -13 158 -13 141 0 156 2 180 21 23 18 30 20 56 9 16 -7 27 -16 24 -21
-3 -5 -1 -9 5 -9 5 0 11 6 14 13 3 9 7 9 20 -1 9 -8 26 -12 38 -10 19 3 16 7
-22 34 -95 67 -266 149 -376 181 -35 9 -63 21 -63 25 0 10 -6 11 77 -12 40
-11 118 -40 174 -65 93 -41 102 -43 117 -29 15 15 14 16 -7 9 -15 -4 -21 -3
-17 3 3 5 -10 12 -28 15 -47 8 -151 58 -137 66 26 16 -222 63 -406 77 -111 8
-111 9 -54 148 32 78 172 186 242 186 14 0 55 -19 90 -42 124 -80 108 -77 412
-80 56 -1 77 4 125 29 67 35 127 48 163 34 14 -5 65 -43 112 -85 48 -42 101
-82 117 -91 31 -16 105 -23 117 -11 4 4 -33 45 -83 91 -49 47 -84 85 -79 85
24 2 -93 40 -123 40 -18 0 -42 5 -53 11 -14 7 -24 7 -33 0 -18 -15 -28 -2 -11
15 7 8 25 14 39 14 18 0 24 4 20 15 -4 9 0 15 9 15 8 0 17 7 21 15 3 9 0 15
-9 15 -8 0 -15 -4 -15 -10 0 -5 -3 -10 -7 -10 -10 0 -10 66 0 76 4 4 8 -4 8
-17 1 -17 3 -19 6 -6 5 19 28 23 38 7 8 -12 35 -13 35 -1 0 11 -73 41 -100 41
-15 0 -20 7 -20 29 0 36 -20 53 -57 49 -19 -2 -27 1 -25 10 1 8 -2 11 -8 7 -5
-3 -10 -1 -10 4 0 6 -5 11 -11 11 -8 0 -8 -4 1 -15 17 -21 2 -38 -30 -33 -22
3 -26 1 -22 -14 2 -10 2 -18 -1 -18 -2 0 -44 39 -93 87 -69 67 -80 82 -51 65
21 -12 35 -18 32 -12 -3 5 0 10 7 10 8 1 4 9 -9 19 -33 27 -28 34 10 16 l32
-16 -24 21 c-30 26 -21 25 32 -1 32 -17 39 -18 28 -5 -7 9 -10 16 -6 16 3 0
-7 11 -23 25 -32 27 -47 32 -36 13 4 -7 3 -10 -1 -5 -5 4 -10 16 -12 27 -3 18
8 25 31 21 5 -1 6 5 3 14 -5 10 0 15 14 15 15 0 19 5 15 15 -7 18 37 47 173
115 135 67 190 80 219 52 8 -7 18 -9 23 -6 6 3 18 -1 27 -9 9 -8 33 -23 52
-32 19 -10 46 -28 59 -41 l24 -24 -26 0 c-14 0 -30 7 -35 16 -8 15 -10 15 -15
0 -4 -10 -3 -15 3 -11 6 3 10 1 10 -4 0 -6 36 -27 80 -47 44 -20 80 -41 80
-45 0 -11 28 -1 62 23 35 24 45 23 53 -9 l7 -28 19 24 c26 31 24 50 -6 61 -14
5 -25 12 -25 16 0 3 7 4 15 0 20 -7 19 -6 -8 32 -13 17 -27 29 -30 25 -4 -3
-7 -2 -7 4 0 6 -14 16 -31 22 -43 15 -54 14 -39 -4 16 -20 1 -20 -45 -1 -19 8
-35 11 -35 6 0 -5 -7 -7 -15 -4 -8 4 -12 10 -9 15 3 5 -2 9 -10 9 -23 0 -31
-4 -29 -12 5 -13 -12 -9 -33 7 -19 14 -11 20 21 16 6 -1 1 6 -9 14 -22 17 -40
20 -31 5 3 -5 1 -10 -4 -10 -14 0 -14 17 0 26 8 4 3 11 -12 20 l-24 12 28 13
c23 10 37 29 22 29 -33 0 -413 -166 -607 -265 -58 -30 -112 -55 -120 -55 -8 0
-6 4 5 11 9 6 15 15 11 20 -3 5 -1 16 5 23 6 7 9 26 7 42 -2 16 -7 52 -11 79
l-6 50 25 -60 c14 -33 30 -61 36 -63 6 -2 8 -8 4 -13 -3 -5 0 -9 6 -9 21 0 22
31 2 78 -32 77 -35 99 -13 105 21 5 24 -3 36 -86 15 -98 41 -55 30 49 -6 53
-10 64 -24 60 -9 -2 -30 -7 -48 -11 -18 -4 -67 -25 -110 -47 -97 -50 -101 -42
-39 80 25 49 46 94 46 101 0 16 -20 14 -26 -4 -4 -8 -13 -15 -20 -15 -12 0
-11 5 3 28 l17 27 -21 -18 c-14 -12 -23 -15 -28 -8 -3 6 -15 11 -26 11 -10 0
-19 4 -19 10 0 17 -46 41 -65 34 -15 -6 -12 -10 16 -26 l34 -18 -35 4 c-19 2
-57 9 -84 15 -27 7 -51 9 -54 6 -3 -3 1 -5 9 -5 17 0 84 -58 76 -66 -3 -3 -32
5 -64 19 -32 14 -79 33 -106 43 l-48 17 6 81 c9 118 8 116 68 116 29 -1 77 -9
107 -20 30 -11 61 -19 69 -20 8 0 27 -14 42 -31 19 -21 38 -32 58 -33 16 -1
27 -4 24 -8 -2 -5 1 -8 6 -8 6 0 11 -4 11 -10 0 -5 -29 4 -64 19 -44 20 -80
29 -117 29 l-54 0 53 -14 c30 -8 82 -25 116 -39 34 -14 70 -25 79 -25 23 0 42
35 57 100 7 30 23 84 36 119 28 73 27 71 13 71 -5 0 -7 -5 -4 -10 10 -16 -24
-24 -41 -9 -14 12 -14 14 3 20 10 5 -23 7 -74 6 -50 -1 -87 1 -81 4 5 4 -2 9
-16 13 -14 3 -33 17 -42 31 -9 14 -25 25 -35 25 -25 0 -24 -8 3 -37 19 -20 19
-23 4 -23 -36 0 -8 -26 50 -45 32 -11 64 -23 69 -26 6 -4 22 -9 38 -13 15 -3
27 -10 27 -15 0 -9 -128 26 -142 38 -4 3 -51 4 -105 2 l-98 -4 54 -11 c56 -11
86 -37 34 -29 -26 4 -27 3 -10 -10 16 -13 12 -15 -43 -16 -33 0 -61 0 -62 2
-1 1 -5 83 -8 182 -6 169 -6 173 -8 60z m248 -135 c8 -5 11 -10 5 -10 -5 0
-17 5 -25 10 -8 5 -10 10 -5 10 6 0 17 -5 25 -10z m179 -26 c11 -4 10 -7 -4
-18 -15 -11 -24 -10 -56 6 -22 10 -39 21 -39 23 0 5 74 -3 99 -11z m-59 -184
c32 -25 15 -25 -30 0 -26 14 -30 19 -15 19 11 0 31 -8 45 -19z m-307 -180 c8
0 7 -4 -1 -12 -9 -9 -16 -8 -30 6 -16 18 -16 19 1 12 10 -3 24 -6 30 -6z m295
-15 c17 -6 15 -44 -4 -52 -17 -6 -46 7 -89 42 l-29 22 54 -4 c30 -2 61 -6 68
-8z m-215 -24 c22 -12 37 -31 23 -31 -18 0 -75 33 -70 41 3 5 9 9 12 7 4 -2
19 -10 35 -17z m391 -531 c4 0 4 6 0 13 -5 6 21 -14 56 -45 35 -32 67 -58 72
-58 4 0 8 -4 8 -10 0 -5 -10 -10 -22 -10 -41 0 -58 -3 -58 -12 0 -15 -36 10
-54 37 l-17 26 28 -17 c26 -15 26 -14 -5 16 -39 36 -38 50 1 20 14 -11 28 -16
31 -11 7 11 -22 43 -33 36 -4 -2 -21 10 -37 28 -24 26 -25 28 -3 9 14 -12 29
-22 33 -22z m-64 -11 c0 -6 -4 -7 -10 -4 -5 3 -10 11 -10 16 0 6 5 7 10 4 6
-3 10 -11 10 -16z m-567 -46 c32 -19 61 -42 64 -50 3 -8 -6 -26 -20 -41 -24
-25 -87 -143 -108 -202 -9 -24 -9 -24 6 -5 9 11 18 30 22 43 3 12 9 22 13 22
5 0 -3 -28 -16 -62 -13 -35 -33 -96 -45 -136 -36 -124 -44 -85 -42 203 1 140
5 260 8 266 10 16 52 2 118 -38z m598 -65 c27 -22 47 -43 44 -46 -2 -3 -12 1
-21 9 -10 8 -18 12 -18 9 -1 -3 -18 8 -38 24 -21 15 -35 32 -32 37 8 14 12 12
65 -33z m339 -3 c5 -13 14 -26 19 -30 16 -9 13 -25 -4 -25 -8 0 -15 9 -15 19
0 15 -10 21 -40 26 -49 8 -57 19 -29 39 27 18 56 6 69 -29z m-776 -51 c4 -11
-13 -34 -55 -75 -34 -33 -64 -57 -66 -55 -3 3 16 36 41 75 45 70 68 86 80 55z
m841 -144 c3 -5 1 -10 -4 -10 -6 0 -11 5 -11 10 0 6 2 10 4 10 3 0 8 -4 11
-10z m95 -36 c0 -8 8 -14 18 -14 19 0 122 -85 122 -101 0 -10 -62 30 -68 44
-2 4 -10 7 -18 7 -7 0 -19 9 -26 20 -7 11 -18 20 -25 20 -7 0 -17 9 -23 19
-14 26 -13 31 5 25 8 -4 15 -12 15 -20z m-803 -424 c-4 -24 -27 -51 -27 -32 0
7 6 12 13 13 9 0 9 2 -1 6 -10 4 -10 8 -1 19 16 19 19 18 16 -6z m24 -61 c-12
-12 -25 -18 -28 -15 -3 3 5 14 18 25 31 25 39 17 10 -10z m114 1 c-3 -5 -12
-7 -20 -3 -21 7 -19 13 6 13 11 0 18 -4 14 -10z m-169 -42 c4 -6 3 -8 -4 -4
-5 3 -12 0 -15 -6 -2 -7 -8 -9 -13 -5 -5 4 -2 12 6 17 19 12 17 12 26 -2z"/>
<path d="M510 2063 c0 -6 31 -15 69 -21 38 -7 77 -14 87 -17 11 -3 -1 4 -26
16 -50 24 -130 37 -130 22z"/>
<path d="M6223 1956 c-18 -20 -42 -54 -52 -75 -11 -21 -47 -63 -81 -95 -51
-47 -130 -146 -130 -162 0 -3 -18 -33 -39 -67 -21 -34 -42 -77 -46 -94 -4 -18
-11 -33 -16 -33 -5 0 -9 -12 -9 -27 0 -21 3 -24 9 -13 6 8 7 18 5 22 -3 4 0 8
5 8 6 0 11 5 11 11 0 5 25 53 56 106 39 65 59 91 65 82 4 -7 2 -17 -5 -23 -7
-6 -25 -33 -40 -61 -15 -27 -19 -39 -9 -27 10 13 33 41 51 62 22 26 29 40 20
43 -10 3 -8 10 6 23 18 19 19 19 12 0 -5 -13 5 -9 33 15 22 19 50 41 63 50
l23 17 -27 -3 c-16 -2 -28 0 -28 5 0 8 105 109 140 133 18 13 21 23 18 78 l-3
62 -32 -37z m27 -19 c0 -2 -16 -19 -36 -38 -26 -24 -33 -28 -25 -12 12 23 61
64 61 50z"/>
<path d="M5306 1947 c3 -10 9 -15 12 -12 3 3 0 11 -7 18 -10 9 -11 8 -5 -6z"/>
<path d="M77 1856 c-9 -27 -17 -74 -17 -105 0 -30 -8 -87 -19 -125 -32 -123
-41 -166 -41 -189 1 -19 3 -18 14 8 7 17 11 33 9 37 -2 4 3 21 12 37 8 17 15
40 15 52 0 14 19 41 50 70 28 26 50 51 50 54 0 4 -6 3 -13 -3 -7 -6 -18 -7
-26 -3 -11 7 -11 10 0 17 8 5 15 17 15 27 2 17 0 17 -22 2 -21 -13 -24 -13
-24 -1 0 8 25 34 55 57 30 24 52 45 50 47 -2 2 -24 -8 -50 -23 -25 -15 -49
-25 -52 -21 -3 3 0 23 7 45 7 21 10 45 8 52 -3 8 -12 -8 -21 -35z m33 -182 c0
-2 -7 -4 -15 -4 -8 0 -15 4 -15 10 0 5 7 7 15 4 8 -4 15 -8 15 -10z"/>
<path d="M250 1839 c0 -5 5 -7 10 -4 6 3 10 8 10 11 0 2 -4 4 -10 4 -5 0 -10
-5 -10 -11z"/>
<path d="M244 1805 c-3 -8 -4 -20 -2 -27 3 -7 7 -1 10 15 6 29 1 36 -8 12z"/>
<path d="M6248 1794 c-5 -4 -8 -20 -8 -35 0 -23 -4 -26 -22 -23 -13 2 -17 1
-10 -2 10 -5 10 -9 1 -20 -14 -17 -33 -19 -23 -2 4 7 3 8 -4 4 -6 -4 -9 -13
-5 -22 5 -13 8 -13 29 1 30 20 38 19 30 -2 -7 -17 -6 -17 9 -2 12 11 15 30 13
63 -2 27 -6 44 -10 40z"/>
<path d="M179 1723 c-13 -16 -12 -17 4 -4 9 7 17 15 17 17 0 8 -8 3 -21 -13z"/>
<path d="M1636 1644 c-19 -76 -16 -92 8 -37 8 21 22 53 30 71 14 30 14 32 -3
32 -14 0 -22 -15 -35 -66z"/>
<path d="M1475 1619 c-71 -57 -71 -57 -57 -71 9 -9 12 -9 12 0 0 7 7 12 15 12
8 0 15 3 15 8 0 4 11 8 25 8 19 2 25 -3 26 -20 0 -24 29 59 29 87 0 25 -9 21
-65 -24z"/>
<path d="M6111 1646 c-9 -11 -8 -15 6 -20 10 -4 14 -4 10 0 -4 4 -2 13 4 21 7
8 8 13 1 13 -5 0 -15 -6 -21 -14z"/>
<path d="M6163 1620 c-29 -15 -73 -42 -98 -59 -49 -33 -65 -38 -65 -20 0 8 -5
8 -15 -1 -8 -7 -12 -17 -9 -22 8 -12 -27 -46 -42 -41 -12 4 -40 -51 -106 -202
-29 -67 -44 -93 -46 -78 -2 12 9 45 23 73 14 28 30 63 36 78 8 25 8 25 -5 8
-8 -10 -19 -15 -24 -12 -5 3 -10 0 -9 -7 1 -41 -3 -50 -18 -37 -13 11 -18 11
-28 0 -7 -7 -7 -10 -2 -8 19 11 32 -16 23 -50 -5 -17 -12 -32 -16 -32 -4 0
-17 15 -30 33 -12 18 -36 46 -52 62 l-30 29 1 -35 c0 -19 3 -28 6 -22 3 10 8
10 19 -1 18 -19 18 -30 -1 -22 -13 5 -14 2 -4 -17 7 -12 23 -36 36 -53 26 -35
28 -52 11 -89 -13 -29 -21 -31 -38 -9 -8 8 -23 20 -34 25 -12 6 -4 -6 17 -26
21 -20 36 -40 32 -43 -4 -4 -12 0 -18 8 -7 8 -26 23 -43 32 -30 17 -31 17 -29
-3 1 -12 19 -37 41 -56 21 -19 28 -28 14 -19 -57 36 -66 40 -53 24 11 -12 9
-14 -9 -14 -11 1 -23 -5 -26 -13 -3 -10 0 -12 11 -8 11 4 14 2 10 -9 -7 -18
-8 -18 -54 8 -21 11 -36 25 -33 29 3 5 -1 6 -8 3 -29 -13 -133 -142 -145 -179
-14 -47 -15 -162 -2 -190 6 -14 7 -5 3 28 l-6 47 83 -2 c55 -2 84 -7 87 -15 2
-9 -8 -13 -30 -14 l-33 -1 30 -8 c24 -6 18 -8 -28 -7 -32 0 -61 -3 -64 -7 -3
-3 15 -6 41 -6 29 0 45 -4 41 -10 -3 -5 0 -10 7 -10 35 -1 -24 -19 -70 -22
-42 -2 -52 -6 -52 -21 0 -32 29 -77 51 -77 11 0 17 -5 14 -10 -4 -6 -11 -7
-17 -4 -6 4 -9 1 -6 -7 3 -9 17 -13 39 -12 33 3 33 2 9 -9 -14 -7 -26 -13 -28
-14 -5 -3 28 -54 69 -104 20 -25 49 -69 65 -99 16 -29 46 -72 67 -95 35 -38
37 -38 16 -7 l-22 34 26 -18 c15 -9 27 -21 27 -26 0 -5 5 -9 11 -9 7 0 6 8 -3
22 -24 36 -68 173 -68 210 0 43 20 72 104 149 90 83 115 124 125 207 5 37 21
94 36 126 37 79 44 174 20 262 -37 135 -15 174 161 293 115 78 154 123 164
186 4 25 4 45 1 44 -3 0 -30 -13 -58 -29z m-117 -169 c-3 -4 -19 -14 -36 -21
-16 -7 -30 -19 -30 -26 0 -7 -18 -23 -40 -34 -50 -25 -62 -25 -30 0 21 17 21
19 5 14 -23 -7 34 31 85 57 39 20 54 23 46 10z m-197 -223 c-7 -13 -14 -18
-16 -11 -3 7 1 22 8 35 7 13 14 18 16 11 3 -7 -1 -22 -8 -35z m-105 -169 c-15
-46 -29 -78 -32 -71 -4 13 48 165 55 159 2 -2 -9 -42 -23 -88z m-43 -140 c-6
-16 -10 -18 -10 -7 -1 22 12 55 16 42 2 -6 -1 -22 -6 -35z m-25 -80 c-15 -34
-15 -34 -9 -4 7 35 13 48 20 42 2 -3 -3 -20 -11 -38z m-289 -95 c-3 -3 -12 -4
-19 -1 -8 3 -5 6 6 6 11 1 17 -2 13 -5z m232 -70 c10 -9 -35 -3 -49 6 -11 8
-7 9 15 4 17 -4 32 -8 34 -10z m-19 -24 c24 -15 7 -18 -20 -3 -14 7 -18 13
-10 13 8 0 22 -4 30 -10z m-41 -292 c11 -10 13 -10 7 0 -4 6 -3 12 1 12 10 0
33 -58 33 -84 0 -9 7 -30 15 -46 9 -17 12 -30 8 -30 -5 0 -21 26 -38 58 -16
31 -37 63 -47 70 -10 7 -16 18 -13 23 8 12 18 11 34 -3z"/>
<path d="M2221 1528 c-30 -77 -61 -136 -75 -141 -9 -4 -28 -2 -42 3 -34 13
-47 13 -38 -2 5 -8 0 -9 -14 -6 -33 9 -36 -8 -6 -35 25 -24 28 -24 73 -11 53
16 68 32 81 89 6 22 16 59 24 83 15 43 12 60 -3 20z"/>
<path d="M213 1513 c-13 -8 -23 -21 -23 -28 0 -7 -17 -27 -37 -44 l-38 -31 45
25 c25 14 52 25 61 25 15 0 29 27 29 58 0 16 -10 15 -37 -5z"/>
<path d="M1413 1490 c0 -25 2 -35 4 -22 2 12 2 32 0 45 -2 12 -4 2 -4 -23z"/>
<path d="M1755 1500 c-8 -13 15 -13 35 0 12 8 11 10 -7 10 -12 0 -25 -4 -28
-10z"/>
<path d="M1648 1463 c7 -3 16 -2 19 1 4 3 -2 6 -13 5 -11 0 -14 -3 -6 -6z"/>
<path d="M1595 1450 c-3 -5 -2 -10 4 -10 5 0 13 5 16 10 3 6 2 10 -4 10 -5 0
-13 -4 -16 -10z"/>
<path d="M229 1443 c-1 -5 -1 -10 -1 -13 1 -15 -56 -115 -70 -124 -26 -16 -34
1 -12 26 10 12 13 18 5 13 -7 -4 -21 -9 -30 -10 -33 -3 -72 -25 -65 -36 5 -8
1 -8 -13 0 -14 7 -23 7 -31 -1 -19 -19 -14 -29 13 -22 16 4 25 2 25 -6 0 -6 6
-8 13 -5 6 4 3 -1 -7 -9 -11 -9 -22 -16 -25 -16 -3 0 -11 -11 -17 -24 -11 -24
-10 -24 15 -15 14 6 28 14 31 18 3 5 16 11 30 15 24 7 24 6 -5 -18 -16 -14
-33 -26 -38 -26 -11 0 -47 -38 -47 -50 0 -7 6 -7 20 0 11 6 20 8 20 5 0 -3 16
6 35 21 27 20 35 23 35 11 0 -9 -20 -28 -45 -43 -25 -14 -45 -31 -45 -37 0 -7
4 -7 12 1 16 16 48 15 48 -1 0 -7 -7 -23 -16 -36 -13 -18 -18 -20 -25 -10 -6
9 -9 10 -9 2 0 -6 -3 -20 -7 -30 -6 -16 -5 -16 10 -4 10 8 19 12 21 10 2 -2
-2 -29 -8 -59 -6 -30 -9 -71 -6 -90 4 -31 8 -23 28 61 13 52 29 108 37 123 8
16 13 32 10 36 -3 4 4 19 15 33 11 13 35 69 55 123 19 55 38 106 42 114 8 18
14 80 7 80 -2 0 -5 -3 -5 -7z m-79 -203 c-6 -11 -15 -18 -21 -14 -6 4 -6 11 2
20 17 21 31 17 19 -6z"/>
<path d="M1920 1435 c19 -7 44 -13 55 -13 13 0 7 5 -15 13 -19 7 -44 13 -55
13 -13 0 -7 -5 15 -13z"/>
<path d="M5705 1439 c-4 -6 -5 -12 -2 -15 2 -3 7 2 10 11 7 17 1 20 -8 4z"/>
<path d="M35 1384 c-17 -19 -31 -40 -33 -47 -2 -7 2 -6 10 3 16 19 54 20 50 2
-1 -8 2 -11 8 -7 6 4 9 10 6 13 -3 3 8 14 26 25 l32 19 -24 14 c-35 19 -41 17
-75 -22z m75 12 c0 -2 -12 -12 -27 -21 l-28 -18 19 21 c17 20 36 29 36 18z"/>
<path d="M1861 1396 c8 -9 99 -45 99 -40 0 2 -21 14 -46 24 -45 20 -62 24 -53
16z"/>
<path d="M1760 1352 c0 -5 14 -19 31 -31 l31 -23 -23 31 c-22 30 -39 40 -39
23z"/>
<path d="M2021 1320 c-9 -5 -8 -9 5 -14 9 -4 21 -3 26 2 12 12 -15 23 -31 12z"/>
<path d="M1915 1255 c-40 -18 -20 -18 30 0 22 8 31 14 20 14 -11 0 -33 -6 -50
-14z"/>
<path d="M1480 1250 c8 -5 20 -10 25 -10 6 0 3 5 -5 10 -8 5 -19 10 -25 10 -5
0 -3 -5 5 -10z"/>
<path d="M1225 1180 c3 -5 14 -10 23 -10 15 0 15 2 2 10 -20 13 -33 13 -25 0z"/>
<path d="M1060 1150 c13 -11 25 -20 28 -20 3 0 -3 9 -13 20 -10 11 -23 20 -28
20 -6 0 0 -9 13 -20z"/>
<path d="M5576 1151 c-10 -11 -16 -26 -13 -33 4 -10 6 -10 6 1 1 8 8 23 18 33
9 10 14 18 11 18 -3 0 -13 -9 -22 -19z"/>
<path d="M1467 1149 c7 -7 15 -10 18 -7 3 3 -2 9 -12 12 -14 6 -15 5 -6 -5z"/>
<path d="M1096 1122 c-3 -5 12 -20 34 -34 44 -29 44 -15 0 20 -16 12 -31 18
-34 14z"/>
<path d="M1340 1116 c0 -2 7 -7 16 -10 8 -3 12 -2 9 4 -6 10 -25 14 -25 6z"/>
<path d="M1065 1090 c-3 -5 3 -26 14 -47 10 -21 19 -42 19 -46 1 -4 11 -17 24
-27 30 -25 14 -26 -21 -1 -16 12 -32 16 -40 12 -9 -6 -10 -11 -2 -15 6 -4 11
-2 11 5 0 16 15 1 15 -14 0 -7 8 -11 18 -9 9 2 16 -1 15 -7 -3 -9 2 -11 21
-11 12 0 8 24 -6 41 -15 19 -63 106 -63 115 0 4 9 -1 20 -11 15 -14 23 -16 32
-7 11 11 11 12 -37 27 -8 2 -17 0 -20 -5z"/>
<path d="M1615 1080 c-3 -6 1 -7 9 -4 18 7 21 14 7 14 -6 0 -13 -4 -16 -10z"/>
<path d="M1460 1069 c0 -7 -10 -9 -27 -5 l-28 7 30 -25 c35 -30 87 -56 109
-56 8 0 23 14 32 31 13 25 13 31 2 27 -8 -3 -22 0 -32 7 -10 8 -24 11 -31 9
-7 -3 -23 -1 -34 6 -16 8 -21 8 -21 -1z m88 -37 c-2 -8 -9 -17 -17 -20 -8 -3
-11 0 -7 6 3 6 2 13 -4 17 -15 9 -2 25 16 18 8 -3 14 -12 12 -21z"/>
<path d="M5524 1058 l-19 -23 23 19 c12 11 22 21 22 23 0 8 -8 2 -26 -19z"/>
<path d="M1125 1060 c-7 -11 47 -46 126 -82 56 -26 57 -27 64 -77 4 -28 10
-51 14 -51 24 0 73 25 81 40 16 29 13 73 -4 67 -11 -4 -14 2 -11 29 4 40 -24
82 -45 69 -10 -6 -7 -13 14 -30 23 -18 25 -23 12 -28 -9 -4 -16 -1 -16 4 0 6
-8 9 -19 6 -10 -2 -26 0 -35 5 -10 6 -27 11 -39 13 -12 1 -31 6 -42 10 -14 5
-16 4 -7 -3 11 -7 11 -10 -2 -15 -9 -4 -15 -1 -13 5 1 6 -11 19 -28 28 -36 22
-42 23 -50 10z"/>
<path d="M1290 1035 c0 -2 10 -10 23 -16 20 -11 21 -11 8 4 -13 16 -31 23 -31
12z"/>
<path d="M3533 744 c-17 -9 -40 -25 -50 -37 -17 -19 -16 -19 15 2 18 13 38 24
45 25 7 2 23 8 37 14 21 9 22 11 5 11 -11 0 -34 -7 -52 -15z"/>
<path d="M3658 734 c39 -17 40 -26 7 -48 -56 -37 -110 -108 -98 -128 6 -11 41
-10 48 2 3 5 0 7 -8 4 -33 -12 -24 16 18 54 35 31 51 40 71 36 17 -3 23 -1 19
6 -4 6 -13 9 -21 6 -12 -4 -12 -2 -4 14 6 11 18 20 26 20 8 0 12 -4 9 -10 -3
-5 -1 -10 5 -10 6 0 8 -5 4 -12 -5 -9 -2 -8 9 1 10 8 20 12 23 9 2 -3 -12 -18
-33 -33 -43 -33 -116 -102 -93 -90 8 4 24 16 36 27 12 10 45 34 74 52 l53 34
-74 41 c-41 22 -81 40 -89 40 -8 0 0 -7 18 -15z"/>
<path d="M5428 703 c7 -3 16 -2 19 1 4 3 -2 6 -13 5 -11 0 -14 -3 -6 -6z"/>
<path d="M1325 640 c11 -5 64 -23 119 -40 94 -29 182 -71 171 -82 -3 -2 12
-13 32 -24 21 -10 56 -33 78 -50 44 -35 145 -87 153 -80 2 3 -5 17 -17 32 -25
32 -28 52 -3 33 15 -12 15 -12 -1 7 -10 12 -44 29 -75 38 -31 9 -88 36 -125
62 -38 25 -78 47 -89 49 -11 3 -55 15 -97 29 -73 23 -189 43 -146 26z m469
-181 c23 -11 44 -39 28 -39 -9 1 -69 50 -60 50 4 0 18 -5 32 -11z"/>
<path d="M3408 568 c5 -5 16 -8 23 -6 8 3 3 7 -10 11 -17 4 -21 3 -13 -5z"/>
<path d="M6198 533 c-20 -21 -71 -72 -113 -113 -87 -85 -170 -184 -240 -289
-29 -43 -53 -70 -61 -67 -7 3 -16 -4 -19 -14 -4 -11 -13 -27 -21 -35 -14 -13
14 -15 250 -15 l266 0 0 240 c0 132 -1 240 -3 240 -8 0 -76 -55 -117 -93 -52
-50 -85 -73 -61 -43 13 15 13 19 0 27 -11 7 -10 10 6 15 11 3 34 23 50 44 17
22 36 37 43 35 6 -2 12 0 12 4 0 5 -5 11 -10 13 -6 2 5 22 25 46 45 52 41 55
-7 5z m32 -229 c0 -8 -4 -12 -10 -9 -5 3 -10 1 -10 -6 0 -7 -2 -10 -5 -7 -8 7
5 38 16 38 5 0 9 -7 9 -16z m0 -54 c6 -11 8 -20 6 -20 -3 0 -10 9 -16 20 -6
11 -8 20 -6 20 3 0 10 -9 16 -20z m-280 -142 c0 -21 -17 -41 -29 -34 -7 4 -4
13 7 26 21 23 22 23 22 8z m17 -10 c-3 -8 -6 -5 -6 6 -1 11 2 17 5 13 3 -3 4
-12 1 -19z"/>
<path d="M1570 515 c24 -26 40 -32 40 -16 0 15 -30 41 -47 41 -13 0 -12 -5 7
-25z"/>
<path d="M3240 506 c-69 -36 -112 -73 -85 -73 8 0 17 7 20 15 3 8 12 12 20 8
8 -3 14 -1 12 4 -1 4 18 19 43 33 38 20 48 22 58 10 9 -9 18 -10 32 -3 21 11
230 12 275 0 17 -4 23 -8 15 -9 -12 -1 -12 -3 -2 -10 11 -6 10 -10 -5 -16 -10
-5 -21 -9 -25 -9 -3 -1 -10 -5 -15 -10 -5 -5 -3 -6 5 -2 18 11 15 -1 -8 -24
-23 -23 -35 -26 -24 -7 4 6 -9 -4 -29 -22 -21 -19 -37 -37 -37 -40 0 -3 14 8
30 24 35 34 40 23 8 -14 l-23 -26 25 20 c14 11 52 45 86 76 50 47 65 56 90 53
16 -2 -5 8 -46 21 -61 20 -102 26 -215 30 l-140 5 -65 -34z"/>
<path d="M4251 536 c2 -2 33 -7 69 -11 36 -4 66 -8 68 -10 2 -1 -18 -24 -45
-49 l-48 -46 67 40 c74 44 83 47 91 26 4 -10 0 -12 -14 -9 -10 3 -19 1 -19 -5
0 -13 49 -22 56 -11 3 5 12 9 20 9 10 0 4 -10 -16 -26 -46 -39 -28 -41 40 -5
33 18 64 29 70 26 5 -3 52 -8 102 -11 51 -2 104 -7 118 -10 23 -5 23 -6 6 -16
-15 -8 -16 -12 -5 -20 11 -7 9 -8 -4 -4 -18 6 -77 -21 -77 -36 0 -4 5 -10 12
-14 7 -5 8 -3 3 6 -5 9 -4 11 4 6 7 -5 29 3 52 18 78 52 137 58 78 9 -24 -20
-27 -28 -17 -35 10 -8 9 -9 -3 -5 -16 5 -83 -46 -73 -56 3 -3 19 -1 35 3 38
11 37 -3 -3 -33 -27 -20 -43 -24 -91 -22 -54 2 -56 1 -32 -11 20 -10 71 -13
212 -11 102 2 225 -2 276 -8 92 -12 122 -12 73 1 -30 7 -33 19 -9 33 10 5 14
13 10 17 -4 4 -14 -2 -23 -14 -12 -18 -19 -20 -40 -12 -14 6 -42 10 -62 10
l-37 0 25 20 c24 19 24 20 4 20 -12 0 -24 -7 -28 -15 -3 -9 -18 -15 -36 -15
-27 0 -30 3 -25 20 5 14 2 20 -9 20 -9 0 -16 -3 -16 -8 0 -16 -41 -33 -58 -23
-16 10 -16 10 1 11 9 0 17 5 17 10 0 6 5 10 12 10 6 0 18 7 27 15 41 39 117
95 129 95 7 0 11 4 7 10 -9 15 -255 -139 -248 -156 3 -9 -2 -14 -16 -14 -12 0
-21 2 -21 4 0 11 175 156 188 156 17 0 105 40 100 45 -2 2 -28 -3 -58 -11 -72
-19 -129 -18 -176 3 -25 10 -82 19 -154 24 -158 9 -272 26 -331 49 -32 13 -74
20 -116 20 -36 0 -64 -2 -62 -4z m732 -133 c10 -9 -23 -43 -41 -43 -7 0 -28
-10 -44 -22 -28 -19 -29 -19 -21 -2 6 10 9 24 7 29 -9 23 80 57 99 38z"/>
<path d="M6225 506 c-16 -15 -24 -26 -19 -26 15 1 59 38 52 45 -3 3 -18 -5
-33 -19z"/>
<path d="M5200 473 l-35 -14 52 5 c29 3 55 1 58 -4 3 -4 23 -11 45 -15 37 -6
45 -14 41 -40 -1 -5 8 0 20 12 19 18 20 24 10 37 -29 35 -128 45 -191 19z"/>
<path d="M3262 448 c-19 -16 -32 -31 -30 -33 1 -2 18 10 36 27 19 16 32 31 30
33 -1 2 -18 -10 -36 -27z"/>
<path d="M3754 451 c1 -21 -102 -150 -121 -150 -7 -1 -17 -9 -22 -18 -26 -46
-27 -46 -55 -28 -26 17 -27 17 -40 -1 -10 -12 -11 -24 -5 -36 13 -24 84 -80
154 -121 33 -19 73 -49 89 -66 23 -24 38 -31 68 -31 37 0 37 1 21 18 -10 10
-20 17 -22 16 -2 -2 -16 5 -31 16 -16 11 -32 20 -38 20 -5 0 -16 7 -23 16 -7
9 -23 20 -36 25 -20 7 -21 11 -11 41 6 18 41 77 77 131 36 54 72 112 80 127 8
16 21 31 30 34 9 3 4 4 -11 2 -19 -2 -25 1 -21 11 4 10 -6 13 -39 13 -37 0
-44 -3 -44 -19z"/>
<path d="M3636 379 c-36 -34 -72 -71 -78 -83 -10 -19 -10 -20 6 -7 10 8 41 38
69 66 102 101 104 116 3 24z"/>
<path d="M1632 393 c-7 -7 -9 -13 -5 -13 4 0 27 -18 51 -40 23 -22 58 -50 76
-63 19 -12 52 -46 74 -75 39 -52 107 -111 128 -112 7 0 34 -20 62 -45 42 -38
56 -45 92 -45 l42 0 -7 57 c-6 56 -61 190 -72 179 -8 -8 -65 23 -59 32 3 4 -4
9 -16 9 -28 3 -65 29 -73 52 -7 23 -36 36 -46 20 -8 -13 -17 -11 -99 21 -82
31 -133 39 -148 23z"/>
<path d="M4006 401 c5 -5 27 -14 49 -21 22 -7 63 -23 91 -35 28 -13 70 -29 93
-36 57 -17 72 -47 46 -95 -12 -23 -24 -33 -33 -29 -9 3 -19 0 -25 -7 -5 -8 -6
3 -3 30 4 23 4 42 2 42 -10 0 -61 -150 -66 -197 l-6 -53 62 0 c67 0 94 6 94
22 0 5 -4 6 -10 3 -16 -10 -12 110 7 187 l17 69 36 -6 c42 -7 107 -28 116 -38
4 -4 16 -7 26 -7 16 0 18 -10 18 -115 0 -113 0 -115 23 -115 20 0 22 4 18 51
-2 36 0 49 8 45 6 -4 11 -27 11 -52 l0 -44 309 0 309 0 -6 87 c-5 80 -4 86 13
79 10 -4 79 -27 154 -53 75 -25 169 -61 210 -79 47 -22 89 -34 115 -34 l41 1
-50 26 c-221 115 -459 171 -730 172 -171 0 -271 10 -340 31 -33 11 -112 31
-175 45 -141 32 -218 55 -332 100 -91 36 -109 41 -92 26z m563 -271 c0 -9 -4
-8 -9 5 -5 11 -9 27 -9 35 0 9 4 8 9 -5 5 -11 9 -27 9 -35z"/>
<path d="M4414 394 c-18 -14 -18 -15 4 -4 12 6 22 13 22 15 0 8 -5 6 -26 -11z"/>
<path d="M3149 363 c-13 -16 -12 -17 4 -4 9 7 17 15 17 17 0 8 -8 3 -21 -13z"/>
<path d="M4277 373 c-3 -5 9 -9 26 -10 26 -1 28 0 12 7 -26 11 -33 12 -38 3z"/>
<path d="M4775 356 c-11 -7 -29 -16 -40 -19 -16 -4 -15 -5 6 -6 14 0 34 8 44
19 21 23 17 26 -10 6z"/>
<path d="M5335 358 c-5 -5 -19 -15 -30 -23 -20 -14 -20 -14 2 -15 13 0 27 9
33 21 13 23 10 32 -5 17z"/>
<path d="M3210 333 c-8 -1 -40 -4 -70 -5 -49 -3 -55 -6 -58 -26 -5 -31 64 -97
115 -111 65 -18 81 -15 88 20 4 17 24 48 45 69 l39 39 -52 9 c-49 10 -73 11
-107 5z m30 -115 c22 -20 22 -23 7 -26 -22 -4 -70 25 -62 38 10 16 30 11 55
-12z"/>
<path d="M5064 324 c-18 -14 -18 -15 4 -4 12 6 22 13 22 15 0 8 -5 6 -26 -11z"/>
<path d="M4695 319 c-4 -6 -13 -8 -20 -5 -8 3 -19 -2 -25 -9 -7 -8 -16 -12
-21 -9 -5 2 -20 -3 -34 -12 -20 -13 -23 -19 -13 -25 27 -17 55 -8 93 31 21 22
36 40 33 40 -4 0 -10 -5 -13 -11z"/>
<path d="M5299 293 c-13 -16 -12 -17 4 -4 9 7 17 15 17 17 0 8 -8 3 -21 -13z"/>
<path d="M3447 289 c7 -7 15 -10 18 -7 3 3 -2 9 -12 12 -14 6 -15 5 -6 -5z"/>
<path d="M3972 209 c-7 -11 -10 -24 -7 -29 3 -5 1 -11 -4 -14 -4 -3 -8 -43 -8
-88 0 -46 2 -67 4 -48 2 19 11 70 19 113 17 84 16 98 -4 66z"/>
<path d="M4069 188 c-7 -29 -5 -45 8 -65 11 -17 14 -36 9 -72 l-6 -48 30 -1
c26 -1 30 3 30 26 0 15 3 43 5 62 7 43 -8 71 -27 52 -9 -9 -9 -12 0 -12 7 0
12 -4 12 -10 0 -23 -19 -7 -30 25 -10 29 -28 55 -31 43z m58 -125 c-3 -10 -5
-4 -5 12 0 17 2 24 5 18 2 -7 2 -21 0 -30z"/>
<path d="M998 173 c7 -3 16 -2 19 1 4 3 -2 6 -13 5 -11 0 -14 -3 -6 -6z"/>
<path d="M870 146 c0 -2 8 -10 18 -17 15 -13 16 -12 3 4 -13 16 -21 21 -21 13z"/>
<path d="M945 101 c11 -4 36 -11 55 -15 24 -4 29 -3 15 3 -11 4 -36 11 -55 15
-24 4 -29 3 -15 -3z"/>
<path d="M4350 101 c0 -7 -7 -19 -15 -27 -19 -20 -20 -74 -1 -74 9 0 15 17 19
52 2 29 3 55 1 57 -2 2 -4 -1 -4 -8z"/>
<path d="M4470 64 c0 -10 -3 -29 -6 -41 -5 -19 -2 -23 19 -23 24 0 24 1 13 35
-15 42 -26 55 -26 29z"/>
<path d="M1235 37 c43 -39 88 -48 99 -21 11 28 7 32 -41 39 -27 3 -59 9 -73
12 -22 5 -20 2 15 -30z"/>
<path d="M4391 14 c0 -11 3 -14 6 -6 3 7 2 16 -1 19 -3 4 -6 -2 -5 -13z"/>
<path d="M4410 20 c0 -5 5 -10 11 -10 5 0 7 5 4 10 -3 6 -8 10 -11 10 -2 0 -4
-4 -4 -10z"/>
</g>
</svg>
