<?xml version="1.0" standalone="no"?>
<!DOCTYPE svg PUBLIC "-//W3C//DTD SVG 20010904//EN"
 "http://www.w3.org/TR/2001/REC-SVG-20010904/DTD/svg10.dtd">
<svg version="1.0" xmlns="http://www.w3.org/2000/svg"
 width="626.000000pt" height="484.000000pt" viewBox="0 0 626.000000 484.000000"
 preserveAspectRatio="xMidYMid meet">

<g transform="translate(0.000000,484.000000) scale(0.100000,-0.100000)"
fill="#000000" stroke="none">
<path d="M5010 4828 c0 -15 22 -78 32 -93 3 -5 9 -36 13 -68 4 -31 10 -59 14
-61 9 -6 -8 179 -19 209 -10 26 -40 35 -40 13z"/>
<path d="M2140 4259 c-7 -11 -10 -23 -7 -25 2 -2 9 7 15 21 14 30 7 33 -8 4z"/>
<path d="M136 4095 c4 -9 11 -14 16 -13 15 5 11 23 -6 26 -11 2 -14 -2 -10
-13z"/>
<path d="M6173 4005 c-8 -22 6 -33 17 -15 13 20 12 30 0 30 -6 0 -13 -7 -17
-15z"/>
<path d="M351 3279 c9 -8 20 -35 24 -61 9 -68 56 -111 55 -50 -1 15 2 38 5 52
8 32 -17 57 -66 66 -30 6 -32 5 -18 -7z"/>
<path d="M476 3145 c4 -8 8 -15 10 -15 2 0 4 7 4 15 0 8 -4 15 -10 15 -5 0 -7
-7 -4 -15z"/>
<path d="M5891 879 c-1 -9 7 -23 17 -30 15 -12 16 -12 6 1 -6 8 -14 22 -17 30
-5 13 -6 12 -6 -1z"/>
<path d="M5974 845 c5 -27 4 -40 -6 -47 -21 -14 45 -68 83 -68 26 0 28 2 17
14 -8 7 -20 32 -28 55 -8 25 -26 51 -43 63 l-30 21 7 -38z"/>
<path d="M4513 630 c-40 -9 -93 -40 -107 -62 -8 -13 -5 -24 13 -49 19 -25 22
-40 18 -75 -4 -41 -3 -43 15 -33 11 6 28 9 38 6 12 -3 29 6 47 25 15 16 43 38
61 50 40 24 42 53 7 108 -26 41 -35 44 -92 30z"/>
<path d="M90 205 c0 -9 6 -12 15 -9 8 4 15 10 15 15 0 5 -7 9 -15 9 -8 0 -15
-7 -15 -15z"/>
<path d="M5492 156 c1 -10 8 -17 13 -17 15 1 12 24 -3 29 -9 3 -13 -2 -10 -12z"/>
</g>
</svg>
